<region> lovel=1 hivel=3 amp_velcurve_3=1 sample=../samples/_misc/air_swipes/mlt/airswipe_mlt_001.wav
<region> lovel=4 hivel=6 amp_velcurve_6=1 sample=../samples/_misc/air_swipes/mlt/airswipe_mlt_002.wav
<region> lovel=7 hivel=9 amp_velcurve_9=1 sample=../samples/_misc/air_swipes/mlt/airswipe_mlt_003.wav
<region> lovel=10 hivel=12 amp_velcurve_12=1 sample=../samples/_misc/air_swipes/mlt/airswipe_mlt_004.wav
<region> lovel=13 hivel=15 amp_velcurve_15=1 sample=../samples/_misc/air_swipes/mlt/airswipe_mlt_005.wav
<region> lovel=16 hivel=18 amp_velcurve_18=1 sample=../samples/_misc/air_swipes/mlt/airswipe_mlt_006.wav
<region> lovel=19 hivel=21 amp_velcurve_21=1 sample=../samples/_misc/air_swipes/mlt/airswipe_mlt_007.wav
<region> lovel=22 hivel=24 amp_velcurve_24=1 sample=../samples/_misc/air_swipes/mlt/airswipe_mlt_008.wav
<region> lovel=25 hivel=27 amp_velcurve_27=1 sample=../samples/_misc/air_swipes/mlt/airswipe_mlt_009.wav
<region> lovel=28 hivel=30 amp_velcurve_30=1 sample=../samples/_misc/air_swipes/mlt/airswipe_mlt_010.wav
<region> lovel=31 hivel=33 amp_velcurve_33=1 sample=../samples/_misc/air_swipes/mlt/airswipe_mlt_011.wav
<region> lovel=34 hivel=36 amp_velcurve_36=1 sample=../samples/_misc/air_swipes/mlt/airswipe_mlt_012.wav
<region> lovel=37 hivel=39 amp_velcurve_39=1 sample=../samples/_misc/air_swipes/mlt/airswipe_mlt_013.wav
<region> lovel=40 hivel=42 amp_velcurve_42=1 sample=../samples/_misc/air_swipes/mlt/airswipe_mlt_014.wav
<region> lovel=43 hivel=45 amp_velcurve_45=1 sample=../samples/_misc/air_swipes/mlt/airswipe_mlt_015.wav
<region> lovel=46 hivel=48 amp_velcurve_48=1 sample=../samples/_misc/air_swipes/mlt/airswipe_mlt_016.wav
<region> lovel=49 hivel=51 amp_velcurve_51=1 sample=../samples/_misc/air_swipes/mlt/airswipe_mlt_017.wav
<region> lovel=52 hivel=54 amp_velcurve_54=1 sample=../samples/_misc/air_swipes/mlt/airswipe_mlt_018.wav
<region> lovel=55 hivel=57 amp_velcurve_57=1 sample=../samples/_misc/air_swipes/mlt/airswipe_mlt_019.wav
<region> lovel=58 hivel=60 amp_velcurve_60=1 sample=../samples/_misc/air_swipes/mlt/airswipe_mlt_020.wav
<region> lovel=61 hivel=63 amp_velcurve_63=1 sample=../samples/_misc/air_swipes/mlt/airswipe_mlt_021.wav
<region> lovel=64 hivel=66 amp_velcurve_66=1 sample=../samples/_misc/air_swipes/mlt/airswipe_mlt_022.wav
<region> lovel=67 hivel=69 amp_velcurve_69=1 sample=../samples/_misc/air_swipes/mlt/airswipe_mlt_023.wav
<region> lovel=70 hivel=72 amp_velcurve_72=1 sample=../samples/_misc/air_swipes/mlt/airswipe_mlt_024.wav
<region> lovel=73 hivel=75 amp_velcurve_75=1 sample=../samples/_misc/air_swipes/mlt/airswipe_mlt_025.wav
<region> lovel=76 hivel=79 amp_velcurve_79=1 sample=../samples/_misc/air_swipes/mlt/airswipe_mlt_026.wav
<region> lovel=80 hivel=83 amp_velcurve_83=1 sample=../samples/_misc/air_swipes/mlt/airswipe_mlt_027.wav
<region> lovel=84 hivel=87 amp_velcurve_87=1 sample=../samples/_misc/air_swipes/mlt/airswipe_mlt_028.wav
<region> lovel=88 hivel=91 amp_velcurve_91=1 sample=../samples/_misc/air_swipes/mlt/airswipe_mlt_029.wav
<region> lovel=92 hivel=95 amp_velcurve_95=1 sample=../samples/_misc/air_swipes/mlt/airswipe_mlt_030.wav
<region> lovel=96 hivel=99 amp_velcurve_99=1 sample=../samples/_misc/air_swipes/mlt/airswipe_mlt_031.wav
<region> lovel=100 hivel=103 amp_velcurve_103=1 sample=../samples/_misc/air_swipes/mlt/airswipe_mlt_032.wav
<region> lovel=104 hivel=107 amp_velcurve_107=1 sample=../samples/_misc/air_swipes/mlt/airswipe_mlt_033.wav
<region> lovel=108 hivel=111 amp_velcurve_111=1 sample=../samples/_misc/air_swipes/mlt/airswipe_mlt_034.wav
<region> lovel=112 hivel=115 amp_velcurve_115=1 sample=../samples/_misc/air_swipes/mlt/airswipe_mlt_035.wav
<region> lovel=116 hivel=119 amp_velcurve_119=1 sample=../samples/_misc/air_swipes/mlt/airswipe_mlt_036.wav
<region> lovel=120 hivel=123 amp_velcurve_123=1 sample=../samples/_misc/air_swipes/mlt/airswipe_mlt_037.wav
<region> lovel=124 hivel=127 amp_velcurve_127=1 sample=../samples/_misc/air_swipes/mlt/airswipe_mlt_038.wav
